<?xml version="1.0" encoding="UTF-8"?><svg xmlns="http://www.w3.org/2000/svg" viewBox="0 0 628.37 192.21"><defs><style>.cls-1,.cls-2,.cls-3,.cls-4,.cls-5{stroke-width:0px;}.cls-2{fill:#178744;}.cls-3{fill:#2ecc71;}.cls-4{fill:#71d198;}.cls-5{fill:#fff;}</style></defs><g id="Layer_3"><path class="cls-4" d="m628.37,96.11c0,53.08-43.03,96.11-96.11,96.11-24.67,0-47.17-9.3-64.19-24.58-19.59-17.59-31.91-43.12-31.91-71.53,0-53.08,43.03-96.11,96.11-96.11,17.18,0,33.3,4.51,47.25,12.4,29.17,16.5,48.85,47.8,48.85,83.71Z"/><path class="cls-3" d="m558.31,3.6c-8.28-2.33-17.01-3.6-26.04-3.6-53.08,0-96.11,43.03-96.11,96.11,0,13.8,2.93,26.91,8.17,38.77,80.24-33.1,108.39-112.7,113.98-131.28Z"/><path class="cls-2" d="m579.52,12.4c-6.29-3.56-13.03-6.38-20.1-8.46.29,86.73-2.91,146.49-8.28,186.41,44.04-8.77,77.23-47.63,77.23-94.24,0-35.9-19.69-67.21-48.85-83.71Z"/></g><g id="Layer_2_copy"><path class="cls-1" d="m61.68,120.71l-5.99-14.23h-27.88l4.6-6.13h20.73l-9.85-23.51L9.49,120.71H1.39l40-51.46c1.17-1.46,2.34-2.34,3.94-2.34s2.34.88,2.99,2.34l21.9,51.46h-8.54Z"/><path class="cls-1" d="m76.65,120.71l9.34-53.07h30.22c12.92,0,21.24,8.76,21.24,21.53,0,17.45-14.02,31.54-30.59,31.54h-30.22Zm31.46-7.08c11.9,0,22.12-10.15,22.12-22.92,0-9.42-6.06-15.99-15.26-15.99h-23.14l-6.86,38.91h23.14Z"/><path class="cls-1" d="m144.69,120.12v-7.08h39.49c5.91,0,9.05-3.43,9.05-8.39,0-5.47-3.21-8.25-9.05-8.25h-24.82c-9.56,0-15.48-6.35-15.48-14.82s5.47-14.53,15.62-14.53h37.89v7.08h-37.89c-5.26,0-8.25,3.21-8.25,7.88s3.14,7.81,8.18,7.81h24.75c10.29,0,15.77,5.11,15.77,15.11,0,8.69-5.18,15.18-15.77,15.18h-39.49Z"/><path class="cls-1" d="m222.58,104.94v-6.86h22.92c7.52,0,11.9-4.89,11.9-12.04s-4.38-11.9-11.9-11.9h-29.78v45.99h-7.08v-53.07h36.86c11.9,0,18.83,7.3,18.83,18.76s-6.93,19.13-18.83,19.13h-22.92Z"/><path class="cls-1" d="m320.84,120.12l-8.47-14.23h-27.89l3.5-6.13h20.73l-14.02-23.51-26.06,43.87h-8.1l30.95-51.46c.88-1.46,1.9-2.34,3.5-2.34s2.56.88,3.43,2.34l30.95,51.46h-8.54Z"/><path class="cls-1" d="m352.67,120.12c-14.6,0-25.33-11.68-25.33-27.08s10.73-25.99,25.33-25.99h28.25v7.08h-28.25c-10.51,0-18.25,7.88-18.25,19.27s7.67,19.64,18.25,19.64h28.25v7.08h-28.25Z"/><path class="cls-1" d="m389.17,120.12v-53.07h46.57v7.08h-39.49v38.91h39.56v7.08h-46.65Zm13.94-23.72v-6.57h30.66v6.57h-30.66Z"/><path class="cls-5" d="m440.41,120.56l2.41-13.5h37.08c3.58,0,5.26-2.19,5.26-5.11,0-1.97-1.17-3.29-3.8-3.29h-24.09l1.75-10.15h23.14c3.58,0,5.26-1.97,5.26-4.53,0-1.82-1.24-3.14-3.87-3.14h-35.92l2.34-13.36h35.62c9.93,0,16.21,4.01,16.21,11.75s-4.23,11.02-6.93,12.77c2.41,1.53,4.31,5.04,4.31,9.05,0,11.68-9.27,19.49-21.32,19.49h-37.45Z"/><path class="cls-5" d="m525.74,120.56c-13.14,0-20.8-7.08-20.8-20.95,0-21.61,11.68-32.12,30.15-32.12h31.54l-2.34,13.43h-31.54c-6.64,0-10.73,2.63-12.7,7.59h28.69c8.98,0,14.09,3.94,14.09,12.19,0,12.19-7.88,19.86-19.71,19.86h-17.37Zm-7.15-21.9c.29,5.99,3.43,8.39,9.56,8.39h16.06c4.01,0,5.62-2.12,5.62-5.11,0-2.12-1.24-3.29-4.16-3.29h-27.08Z"/><path class="cls-5" d="m593.34,121.22c-14.38,0-24.02-10.44-24.02-23.72,0-17.59,15.7-30.66,33.65-30.66,14.31,0,24.16,9.34,24.16,22.63,0,17.23-15.99,31.75-33.8,31.75Zm7.23-40.88c-12.04,0-17.67,7.59-17.67,16.35,0,6.42,3.87,11.02,12.77,11.02,12.19,0,17.67-7.3,17.67-16.13,0-6.42-3.79-11.24-12.77-11.24Z"/></g></svg>