<?xml version="1.0" encoding="UTF-8"?><svg id="Layer_2" xmlns="http://www.w3.org/2000/svg" viewBox="0 0 920.44 170.84"><defs><style>.cls-1{isolation:isolate;}.cls-2{fill:#F2F3F5;}.cls-3{fill:#24a95a;}</style></defs><g id="Wordmark"><g class="cls-1"><path class="cls-2" d="M166.68,145.32l-11.2-28.16h-50.79l-11.2,28.16h-24.14L115.88,27.52h28.58l46.54,117.8h-24.33ZM112.41,97.69h35.34l-17.57-44.42-17.77,44.42Z"/><path class="cls-2" d="M206.46,145.32V27.52h71.84c19.89,0,27.81,12.39,27.81,23.17v71.62c0,13.68-11.2,23.01-27.81,23.01h-71.84ZM230.98,125.85h42.3c5.41,0,8.3-2.9,8.3-7.24V54.4c0-4.51-2.9-7.24-8.3-7.24h-42.3v78.7Z"/><path class="cls-2" d="M362.12,146.93c-16.42,0-27.62-9.33-27.62-23.01v-14.32h24.53v9.98c0,4.67,2.32,7.89,9.27,7.89h31.09c5.41,0,8.11-2.9,8.11-7.24v-13.68c0-3.7-1.93-6.76-9.08-8.21l-42.49-8.05c-12.94-2.41-21.44-9.01-21.44-21.24v-20.12c0-14,11.01-23.01,27.62-23.01h39.78c16.8,0,27.81,9.33,27.81,23.01v12.88h-24.53v-9.01c0-3.86-2.32-7.4-8.11-7.4h-29.93c-5.41,0-8.11,2.74-8.11,7.24v12.07c0,3.54,1.55,7.08,8.5,8.37l36.31,6.6c14.68,2.74,28.2,7.24,28.2,23.5v20.76c0,13.68-11.2,23.01-27.81,23.01h-42.1Z"/><path class="cls-2" d="M532.84,27.52c16.42,0,27.81,9.33,27.81,23.01v29.29c0,14-11.01,23.17-27.81,23.17h-45.96v42.33h-24.53V27.52h70.49ZM535.93,54.07c0-4.83-3.67-7.08-8.3-7.08h-40.75v36.37h40.75c5.41,0,8.3-2.74,8.3-7.08v-22.21Z"/><path class="cls-2" d="M661.46,145.32l-11.2-28.16h-50.79l-11.2,28.16h-24.14l46.54-117.8h28.58l46.54,117.8h-24.33ZM607.19,97.69h35.34l-17.57-44.42-17.77,44.42Z"/><path class="cls-2" d="M728.09,146.93c-18.35-.48-27.81-10.3-27.81-23.01V48.92c0-12.87,10.04-23.01,27.81-23.01h43.26c16.8,0,27.81,9.17,27.81,23.01v17.54h-24.53v-13.52c0-4.02-2.32-7.56-8.3-7.56h-33.22c-5.41,0-8.3,2.74-8.3,7.24v67.59c0,4.34,2.9,7.24,8.3,7.24h33.22c4.63,0,8.3-2.25,8.3-7.89v-13.2h24.53v17.54c0,13.2-10.04,23.01-27.81,23.01h-43.26Z"/><path class="cls-2" d="M920.44,46.99h-66.05v28.65h54.27v19.63h-54.27v30.58h66.05v19.47h-90.58V27.52h90.58v19.47Z"/></g><rect class="cls-3" width="14.86" height="170.84" rx="2.48" ry="2.48"/></g></svg>